<svg width="27" height="26" viewBox="0 0 27 26" fill="none" xmlns="http://www.w3.org/2000/svg">
<path d="M25.1295 10.1875H23.1917C23.1896 8.44763 22.4744 6.77958 21.2029 5.54931C19.9314 4.31903 18.2075 3.62699 16.4093 3.625V1.75C18.7213 1.75248 20.9378 2.64223 22.5726 4.22403C24.2074 5.80583 25.1269 7.9505 25.1295 10.1875ZM23.1917 25.1875H23.027C3.98787 24.1281 1.2846 8.58438 0.906728 3.84063C0.847669 3.09695 1.09633 2.36103 1.59801 1.79474C2.09969 1.22845 2.81331 0.878167 3.58189 0.820938C3.65876 0.815313 3.73595 0.812501 3.81346 0.812501H8.91962C9.30772 0.812137 9.687 0.924541 10.0083 1.13515C10.3296 1.34576 10.5782 1.64488 10.7218 1.99375L12.1945 5.5C12.3363 5.84083 12.3715 6.21445 12.2957 6.57446C12.2199 6.93447 12.0365 7.26501 11.7682 7.525L9.70444 9.54063C10.0255 11.3137 10.9024 12.9484 12.2162 14.223C13.53 15.4975 15.2171 16.3503 17.0488 16.6656L19.1513 14.65C19.4241 14.3933 19.7689 14.2199 20.1428 14.1516C20.5167 14.0832 20.9031 14.1229 21.2539 14.2656L24.9066 15.6813C25.2618 15.8246 25.5648 16.067 25.777 16.3775C25.9892 16.6881 26.1011 17.0527 26.0984 17.425V22.375C26.0984 23.1209 25.7922 23.8363 25.247 24.3637C24.7019 24.8912 23.9626 25.1875 23.1917 25.1875ZM3.81346 2.6875C3.68622 2.68713 3.56015 2.71101 3.44245 2.75779C3.32475 2.80456 3.21773 2.8733 3.12748 2.9601C3.03724 3.04689 2.96555 3.15003 2.91651 3.26364C2.86746 3.37724 2.84202 3.49907 2.84164 3.62219C2.84164 3.64844 2.84261 3.67438 2.84455 3.7C3.29025 9.25 6.14854 22.375 23.1335 23.3125C23.39 23.3274 23.642 23.2431 23.8343 23.0782C24.0265 22.9133 24.1432 22.6812 24.1586 22.4331L24.1606 22.375V17.425L20.5078 16.0094L17.727 18.6812L17.2619 18.625C8.83242 17.6031 7.6891 9.44688 7.6891 9.3625L7.63097 8.9125L10.3827 6.22188L8.92931 2.6875H3.81346Z" fill="white"/>
</svg>
